<?xml version="1.0" encoding="UTF-8" standalone="no"?>
<!-- Created with Inkscape (http://www.inkscape.org/) -->

<svg
   xmlns:dc="http://purl.org/dc/elements/1.1/"
   xmlns:cc="http://creativecommons.org/ns#"
   xmlns:rdf="http://www.w3.org/1999/02/22-rdf-syntax-ns#"
   xmlns:svg="http://www.w3.org/2000/svg"
   xmlns="http://www.w3.org/2000/svg"
   xmlns:sodipodi="http://sodipodi.sourceforge.net/DTD/sodipodi-0.dtd"
   xmlns:inkscape="http://www.inkscape.org/namespaces/inkscape"
   width="51mm"
   height="44.160999mm"
   viewBox="0 0 51 44.160999"
   version="1.1"
   id="svg8"
   inkscape:version="0.92.1 r15371"
   sodipodi:docname="varinha.svg">
  <defs
     id="defs2" />
  <sodipodi:namedview
     id="base"
     pagecolor="#ffffff"
     bordercolor="#666666"
     borderopacity="1.0"
     inkscape:pageopacity="0.0"
     inkscape:pageshadow="2"
     inkscape:zoom="1.979899"
     inkscape:cx="82.330375"
     inkscape:cy="84.413272"
     inkscape:document-units="mm"
     inkscape:current-layer="g952"
     showgrid="false"
     inkscape:window-width="1280"
     inkscape:window-height="657"
     inkscape:window-x="0"
     inkscape:window-y="31"
     inkscape:window-maximized="1" />
  <metadata
     id="metadata5">
    <rdf:RDF>
      <cc:Work
         rdf:about="">
        <dc:format>image/svg+xml</dc:format>
        <dc:type
           rdf:resource="http://purl.org/dc/dcmitype/StillImage" />
        <dc:title></dc:title>
      </cc:Work>
    </rdf:RDF>
  </metadata>
  <g
     inkscape:label="Camada 1"
     inkscape:groupmode="layer"
     id="layer1"
     transform="translate(0,-252.839)">
    <g
       id="g952"
       transform="matrix(0.29524313,0,0,0.29524313,-9.7646091,232.62772)">
      <circle
         style="fill:none;fill-opacity:1;stroke:#343a40;stroke-width:5.41059637;stroke-miterlimit:4;stroke-dasharray:none;stroke-opacity:1"
         id="path50"
         cx="120.65626"
         cy="144.02704"
         r="54.770557" />
      <path
         style="fill:none;fill-opacity:1;stroke:#343a40;stroke-width:6.77407837;stroke-miterlimit:4;stroke-dasharray:none;stroke-opacity:1"
         id="path864"
         d="m 59.751326,120.10682 c 1.592778,0.0336 3.186186,0.0307 4.779254,0.0252 1.758063,-0.0787 3.462311,0.33351 5.159015,0.72837 1.794196,0.29418 3.545736,0.75394 5.306524,1.19537 2.586204,0.48719 5.166827,1.01684 7.712168,1.68723 1.031586,0.33515 2.140082,0.48277 3.143371,0.90916 0.319837,0.13593 0.852947,0.48211 1.144574,0.66283 1.82098,1.22565 3.655825,2.44141 5.545567,3.56011 1.646001,1.03053 3.282952,2.07913 4.944138,3.08476 1.275166,0.69417 2.469982,1.51083 3.605063,2.41264 1.62329,1.19523 3.06626,2.60433 4.49922,4.01563 1.10285,1.03568 1.99809,2.26741 2.8299,3.52478 0.64719,0.95016 1.28229,1.90471 1.8093,2.92752 0.63883,1.25974 0.96293,2.63685 1.2985,3.99965 0.27087,1.53259 0.6587,3.03884 1.02177,4.55084 0.22834,1.31263 0.38119,2.63372 0.6094,3.94728 0.12469,0.98007 0.26636,1.95092 0.45872,2.92001 0.10452,0.91738 0.32366,1.79884 0.62354,2.66962 0.41226,0.90442 0.8839,1.78031 1.29465,2.68724 0.3644,0.88492 0.50831,1.83445 0.81437,2.739 0.31651,0.8301 0.53686,1.69131 0.65459,2.57102 0.30216,3.3245 0.18482,1.22991 -5.91689,4.21226 0.0101,-0.67515 0.0179,-1.35029 0.0354,-2.02542 0.055,-1.45598 -0.0334,-2.9143 0.0537,-4.36846 0.1,-1.36343 0.34641,-2.70861 0.64468,-4.04096 0.30344,-1.49916 0.74357,-2.95765 1.19974,-4.41559 0.53817,-1.68903 1.16742,-3.34716 1.76447,-5.01606 0.54523,-1.61482 0.86046,-3.28918 1.44597,-4.89169 1.06439,-2.26648 2.26981,-4.46157 3.57211,-6.59919 1.36972,-2.19374 3.00643,-4.2063 4.67543,-6.17643 1.85931,-2.16928 3.72497,-4.33281 5.58961,-6.49751 2.29476,-2.53668 4.88892,-4.7765 7.33696,-7.16049 2.2064,-2.30458 4.66937,-4.33757 7.0136,-6.49698 1.8726,-1.6944 3.60711,-3.52908 5.39075,-5.31423 1.61236,-1.57674 3.20331,-3.1733 4.76888,-4.79621 1.52147,-1.58796 3.19452,-3.01753 4.82271,-4.49255 2.0595,-1.92101 4.31101,-3.61372 6.48859,-5.394729 2.12245,-1.760352 4.30176,-3.446126 6.55071,-5.041279 2.86796,-1.995027 5.66733,-4.080795 8.31137,-6.364956 1.77279,-1.598821 3.5201,-3.224997 5.20044,-4.920868 1.16445,-1.161537 2.04633,-2.554078 2.97346,-3.901317 0,0 6.07889,-2.642527 6.07889,-2.642527 v 0 c -0.96964,1.355962 -1.82534,2.801849 -2.97404,4.021012 -1.71093,1.744583 -3.51385,3.38802 -5.32639,5.026198 -2.62754,2.304887 -5.40593,4.416248 -8.26988,6.419932 -2.24436,1.565325 -4.39835,3.248744 -6.51943,4.976837 -2.1627,1.783976 -4.42536,3.445493 -6.4826,5.354117 -1.59508,1.4802 -3.26048,2.88389 -4.7845,4.43897 -1.60305,1.61001 -3.16749,3.25881 -4.81671,4.82396 -1.79702,1.78758 -3.52467,3.64339 -5.40362,5.34769 -2.36277,2.17542 -4.86956,4.19432 -7.09963,6.50865 -2.4017,2.3971 -4.99878,4.59368 -7.30212,7.08881 -1.85625,2.15833 -3.70862,4.31968 -5.56241,6.48001 -1.65398,1.95751 -3.31309,3.92702 -4.7032,6.08476 -1.31914,2.08247 -2.46953,4.25133 -3.56615,6.45817 -0.62604,1.57965 -0.92603,3.24263 -1.39989,4.86761 -0.64911,1.64484 -1.24814,3.31394 -1.80929,4.99054 -0.42907,1.44437 -0.90114,2.87251 -1.16422,4.36067 -0.35542,1.28824 -0.57404,2.61858 -0.70405,3.9475 -0.14155,1.43047 -0.0558,2.87321 -0.0527,4.30871 0.0188,0.66071 0.0281,1.32159 0.0456,1.98222 -7.31626,3.90652 -5.81811,5.26226 -6.04582,1.97343 -0.083,-0.83852 -0.25242,-1.66484 -0.56505,-2.45064 -0.32153,-0.88345 -0.46875,-1.8085 -0.78429,-2.69222 -0.41152,-0.92859 -0.89275,-1.82037 -1.32686,-2.73678 -0.31211,-0.89795 -0.59205,-1.79744 -0.67055,-2.7514 -0.18666,-0.98007 -0.36886,-1.95155 -0.44609,-2.94832 -0.20438,-1.30745 -0.37263,-2.61576 -0.56631,-3.92396 -0.33008,-1.5171 -0.73858,-3.01654 -1.00682,-4.54717 -0.32035,-1.31077 -0.63653,-2.6303 -1.25436,-3.83948 -0.53286,-0.99516 -1.1376,-1.94367 -1.76855,-2.87941 -0.78631,-1.23086 -1.64753,-2.42378 -2.705333,-3.43803 -1.396907,-1.41699 -2.821135,-2.8137 -4.480885,-3.92693 -1.145654,-0.85554 -2.327905,-1.65349 -3.574603,-2.3571 -1.611357,-1.05017 -3.230446,-2.08735 -4.845052,-3.13271 -1.891611,-1.15074 -3.759874,-2.33806 -5.653627,-3.48477 -1.279371,-0.71791 -2.689305,-1.08457 -4.093904,-1.48637 -2.541901,-0.69582 -5.129237,-1.19153 -7.720427,-1.66428 -1.769718,-0.42477 -3.548983,-0.79777 -5.330908,-1.16738 -1.672776,-0.38211 -3.363683,-0.6667 -5.087999,-0.59535 -1.616167,-0.006 -3.232637,-0.008 -4.848531,0.0252 0,0 5.417037,-3.93571 5.417037,-3.93571 z"
         inkscape:connector-curvature="0" />
    </g>
  </g>
</svg>
