<?xml version="1.0" encoding="UTF-8" standalone="no"?>
<!-- Created with Inkscape (http://www.inkscape.org/) -->

<svg
   xmlns:dc="http://purl.org/dc/elements/1.1/"
   xmlns:cc="http://creativecommons.org/ns#"
   xmlns:rdf="http://www.w3.org/1999/02/22-rdf-syntax-ns#"
   xmlns:svg="http://www.w3.org/2000/svg"
   xmlns="http://www.w3.org/2000/svg"
   xmlns:sodipodi="http://sodipodi.sourceforge.net/DTD/sodipodi-0.dtd"
   xmlns:inkscape="http://www.inkscape.org/namespaces/inkscape"
   width="120"
   height="80"
   viewBox="0 0 31.749999 21.166667"
   version="1.1"
   id="svg8"
   inkscape:version="0.92.4 (5da689c313, 2019-01-14)"
   sodipodi:docname="mail.svg">
  <defs
     id="defs2" />
  <sodipodi:namedview
     id="base"
     pagecolor="#ffffff"
     bordercolor="#666666"
     borderopacity="1.0"
     inkscape:pageopacity="0.0"
     inkscape:pageshadow="2"
     inkscape:zoom="7.9195959"
     inkscape:cx="54.926669"
     inkscape:cy="50.577258"
     inkscape:document-units="mm"
     inkscape:current-layer="layer1"
     showgrid="false"
     units="px"
     showguides="false"
     inkscape:window-width="1600"
     inkscape:window-height="837"
     inkscape:window-x="-8"
     inkscape:window-y="-8"
     inkscape:window-maximized="1" />
  <metadata
     id="metadata5">
    <rdf:RDF>
      <cc:Work
         rdf:about="">
        <dc:format>image/svg+xml</dc:format>
        <dc:type
           rdf:resource="http://purl.org/dc/dcmitype/StillImage" />
        <dc:title></dc:title>
      </cc:Work>
    </rdf:RDF>
  </metadata>
  <g
     inkscape:label="Camada 1"
     inkscape:groupmode="layer"
     id="layer1"
     transform="translate(0,-275.83332)">
    <g
       id="g869">
      <path
         transform="matrix(0.26458333,0,0,0.26458333,0,275.83332)"
         inkscape:connector-curvature="0"
         id="path857"
         d="M 2.0039561,40.072598 1.9968066,4.4747703 3.6621671,6.0547402 c 0.9159482,0.8689835 4.2731186,4.0710418 7.4603789,7.1156838 5.244561,5.009889 11.811443,11.205245 15.907746,15.007756 l 1.5473,1.436325 -13.033876,22.581532 C 8.3750834,64.615878 2.3976238,74.97846 2.2604722,75.223996 2.0463535,75.607323 2.0100951,70.638698 2.0039561,40.072598 Z"
         style="fill:#1c2331;fill-opacity:1;stroke:#1c2331;stroke-width:0.53669292;stroke-linecap:round;stroke-linejoin:miter;stroke-miterlimit:4;stroke-dasharray:none;stroke-dashoffset:0;stroke-opacity:1;paint-order:normal" />
      <path
         transform="matrix(0.26458333,0,0,0.26458333,0,275.83332)"
         inkscape:connector-curvature="0"
         id="path859"
         d="M 57.99328,50.119697 C 52.146586,46.60573 34.512656,30.758851 6.2688848,3.6371329 L 4.5022733,1.9407043 32.229475,1.9182408 c 15.249961,-0.012355 40.182515,-0.012355 55.405675,0 l 27.67848,0.022463 -4.18135,3.8009722 c -24.657882,22.414793 -42.533213,37.936821 -49.677091,43.13706 -1.093423,0.795935 -2.475227,1.67804 -2.628624,1.67804 -0.05833,0 -0.433307,-0.196686 -0.833285,-0.437079 z"
         style="fill:#1c2331;fill-opacity:1;stroke:#1c2331;stroke-width:0.42708662;stroke-linecap:round;stroke-linejoin:miter;stroke-miterlimit:4;stroke-dasharray:none;stroke-dashoffset:0;stroke-opacity:1;paint-order:normal" />
      <path
         transform="matrix(0.26458333,0,0,0.26458333,0,275.83332)"
         inkscape:connector-curvature="0"
         id="path861"
         d="M 1.9264916,78.168383 C 1.9596913,78.041932 28.77216,31.485382 29.31238,30.61616 l 0.157311,-0.253115 1.285502,1.190615 c 7.271758,6.73501 15.122069,13.644611 19.677888,17.319869 5.211573,4.204266 7.442708,5.500199 8.931689,5.187882 1.309628,-0.274698 3.543321,-1.775474 8.366439,-5.62125 4.51067,-3.596642 13.915441,-11.62198 21.253258,-18.135961 0.578262,-0.513339 1.066555,-0.917628 1.085096,-0.89842 0.145037,0.150253 28.036747,48.562942 28.067587,48.71796 l 0.04,0.200893 H 60.031291 c -55.3330781,0 -58.1438382,-0.0076 -58.1047994,-0.15625 z"
         style="fill:#1c2331;fill-opacity:1;stroke:#1c2331;stroke-width:0.3023622;stroke-linecap:round;stroke-linejoin:miter;stroke-miterlimit:4;stroke-dasharray:none;stroke-dashoffset:0;stroke-opacity:1;paint-order:normal" />
      <path
         transform="matrix(0.26458333,0,0,0.26458333,0,275.83332)"
         inkscape:connector-curvature="0"
         id="path863"
         d="M 104.50738,52.211996 90.903109,28.648054 91.337738,28.240808 c 0.239046,-0.223986 2.08195,-1.87217 4.095343,-3.66263 C 100.17668,20.35981 107.53615,13.732937 113.37951,8.4182135 l 4.64286,-4.2228252 0.0651,13.4708727 c 0.0358,7.408979 0.0559,23.514603 0.0447,35.790274 l -0.0204,22.319403 z"
         style="fill:#1c2331;fill-opacity:1;stroke:#1c2331;stroke-width:1.18299214;stroke-linecap:butt;stroke-linejoin:miter;stroke-miterlimit:4;stroke-dasharray:none;stroke-dashoffset:0;stroke-opacity:0.96984923;paint-order:normal" />
    </g>
    <g
       id="g879">
      <path
         sodipodi:nodetypes="cscc"
         inkscape:connector-curvature="0"
         id="path10"
         d="m 0.04724702,275.88057 c 0,0 14.32478298,13.95221 15.55320498,13.81047 1.228423,-0.14174 16.102301,-13.81047 16.102301,-13.81047 z"
         style="fill:#808080;fill-opacity:0;stroke:#ffffff;stroke-width:0.89999998;stroke-linecap:butt;stroke-linejoin:round;stroke-miterlimit:4;stroke-dasharray:none;stroke-dashoffset:0;stroke-opacity:1;paint-order:normal" />
      <path
         inkscape:connector-curvature="0"
         id="path817"
         d="m 0.04724702,275.88057 v 21.12532 H 31.732283 l -0.02953,-21.12532"
         style="fill:#ffffff;fill-opacity:0;stroke:#ffffff;stroke-width:0.89999998;stroke-linecap:butt;stroke-linejoin:miter;stroke-miterlimit:4;stroke-dasharray:none;stroke-opacity:1" />
      <path
         inkscape:connector-curvature="0"
         id="path823"
         d="m 0.04724702,297.00589 7.87061258,-13.645"
         style="fill:#ffffff;fill-opacity:0;stroke:#ffffff;stroke-width:0.26458332px;stroke-linecap:butt;stroke-linejoin:miter;stroke-opacity:1" />
      <path
         inkscape:connector-curvature="0"
         id="path825"
         d="m 31.732283,297.00589 -8.031172,-13.9104"
         style="fill:#ffffff;fill-opacity:1;stroke:#ffffff;stroke-width:0.26458332px;stroke-linecap:butt;stroke-linejoin:miter;stroke-opacity:1" />
    </g>
  </g>
</svg>
